<svg xmlns="http://www.w3.org/2000/svg" width="150" height="150"><defs><clipPath id="a"><path d="M39.645 48.574h70.71v52.856h-70.71Zm0 0"/></clipPath></defs><g clip-path="url(#a)"><path d="M39.645 96.652v-2.965h4.12v-30.8a4.383 4.383 0 0 1 4.41-4.41h17.138a18.658 18.658 0 0 0-.579 4.558c0 .504 0 .938.07 1.445H49.696v29.207h15.328v.29c0 .941.723 1.664 1.66 1.664h8.391c.938 0 1.66-.723 1.66-1.664v-.29h15.329V81.18h3.906c.722 0 1.445-.07 2.168-.145v12.582h4.12v2.965a4.843 4.843 0 0 1-4.843 4.844H44.488c-2.675.07-4.843-2.098-4.843-4.774m28.703-33.617c0-7.953 6.507-14.46 14.46-14.46h13.087c7.953 0 14.46 6.507 14.46 14.46 0 7.953-6.507 14.457-14.46 14.457h-9.762l-6.649 6.653c-.433.433-1.23.144-1.23-.504V76.77c-5.785-1.95-9.906-7.301-9.906-13.735m8.605.07a5.891 5.891 0 0 0 1.734 4.196 5.886 5.886 0 0 0 4.191 1.734 5.891 5.891 0 0 0 4.196-1.734l.434-.438-1.88-1.879-.433.434c-.652.652-1.445.941-2.316.941-.867 0-1.66-.363-2.313-.941-.648-.648-.937-1.445-.937-2.313 0-.867.36-1.664.937-2.312.653-.652 1.446-.941 2.313-.941.871 0 1.664.363 2.316.941l6.508 6.508a5.768 5.768 0 0 0 1.95 1.3c.722.29 1.449.434 2.242.434a5.891 5.891 0 0 0 4.195-1.734 5.891 5.891 0 0 0 1.734-4.195 5.891 5.891 0 0 0-1.734-4.196 5.891 5.891 0 0 0-4.195-1.734c-.793 0-1.52.144-2.243.433a5.768 5.768 0 0 0-1.949 1.301l-.508.508 1.88 1.879.507-.504c.648-.652 1.445-.941 2.313-.941.867 0 1.664.363 2.312.941.652.648.941 1.445.941 2.312 0 .868-.359 1.665-.941 2.313-.648.652-1.445.941-2.312.941-.868 0-1.665-.363-2.313-.941l-.941-.938-5.567-5.57a5.891 5.891 0 0 0-4.195-1.734 5.886 5.886 0 0 0-4.191 1.734 5.891 5.891 0 0 0-1.734 4.195" style="stroke:none;fill-rule:nonzero;fill:#07bf3a;fill-opacity:1"/></g><path d="m13.617 54.063-.629 1.664-10.422-.77.489-1.281 9.765.773-.117.317-7.812-5.957.558-1.473 9.781.738-.101.27-7.836-5.89.457-1.216 8.328 6.317-.625 1.652-9.605-.687.12-.325ZM21.809 37.117l-3.524 5.82-8.57-5.19 3.484-5.75.918.554-2.789 4.601 6.738 4.082 2.829-4.668Zm-4.332-1.719-2.688 4.438-.906-.547 2.687-4.437ZM25.258 33.14c-.195.235-.395.465-.602.692-.207.223-.414.45-.629.672-.21.219-.43.434-.656.64l-7.516-6.23c.149-.266.31-.539.489-.824.18-.285.367-.567.57-.848.203-.277.414-.55.637-.816.933-1.125 1.781-1.797 2.547-2.016.765-.226 1.496-.05 2.187.524.293.246.516.527.672.847.152.32.211.672.176 1.051-.031.383-.172.785-.434 1.215l-.066-.078c.383-.36.77-.606 1.164-.746.387-.141.773-.172 1.164-.098.387.082.766.273 1.129.578.469.387.762.832.887 1.34.125.516.05 1.11-.227 1.781-.273.672-.77 1.446-1.492 2.317Zm-.613-.804c.515-.621.867-1.156 1.054-1.606.192-.453.242-.843.156-1.175-.09-.332-.293-.633-.617-.903-.48-.398-.972-.535-1.472-.406-.5.125-1.051.547-1.645 1.266l-1.535 1.847-.777-.644 1.398-1.688c.61-.734.918-1.34.926-1.816.008-.48-.2-.895-.625-1.246-.48-.399-.961-.524-1.442-.371-.48.144-1.035.601-1.671 1.363-.215.262-.41.516-.586.762a7.344 7.344 0 0 0-.457.726l6.16 5.11a13.807 13.807 0 0 0 1.133-1.219ZM37.781 21.664c-.98.738-1.91 1.215-2.785 1.422-.875.207-1.703.14-2.484-.207-.79-.348-1.535-.988-2.242-1.926-.72-.953-1.137-1.863-1.247-2.73a3.96 3.96 0 0 1 .47-2.453c.417-.766 1.07-1.48 1.945-2.145.34-.254.683-.484 1.039-.691.351-.207.699-.383 1.043-.52l.687.91c-.395.16-.754.328-1.078.516-.328.187-.64.398-.941.62-.676.513-1.172 1.052-1.493 1.622a2.854 2.854 0 0 0-.332 1.848c.102.664.45 1.39 1.043 2.18.559.742 1.137 1.257 1.73 1.546a2.754 2.754 0 0 0 1.86.207c.64-.144 1.316-.488 2.035-1.031.242-.184.48-.379.711-.582.235-.207.446-.406.625-.598l-.133.743-2.539-3.372 1.024-.77 2.863 3.798a20.57 20.57 0 0 1-.895.867c-.304.27-.605.52-.906.746ZM45.926 16.895c-.817.43-1.559.656-2.219.675a2.764 2.764 0 0 1-1.785-.55c-.527-.383-1-.977-1.422-1.774l-2.871-5.45 1.195-.628 2.93 5.555c.45.843.96 1.359 1.547 1.543.59.187 1.289.066 2.101-.364.825-.433 1.32-.941 1.493-1.53.175-.59.042-1.306-.403-2.15l-2.93-5.554 1.172-.617 2.871 5.445c.422.797.645 1.524.672 2.172a2.757 2.757 0 0 1-.547 1.781c-.39.535-.988 1.016-1.804 1.446ZM53.703 13.48l-1.281.418-3.047-9.355c.379-.207.79-.41 1.234-.613.446-.203.93-.39 1.45-.563 1.355-.441 2.441-.535 3.257-.285.817.25 1.383.867 1.704 1.848.21.636.226 1.226.046 1.761-.183.536-.55 1.012-1.101 1.43-.55.422-1.278.777-2.18 1.074-.234.075-.465.145-.687.211-.227.067-.45.121-.668.168Zm6.305-2.05-1.477.48-4.949-3.332 1.438-.465Zm-6.535-3.196c1.039-.34 1.742-.742 2.101-1.21.364-.47.438-1.032.227-1.68-.227-.688-.602-1.114-1.13-1.266-.523-.164-1.26-.09-2.21.219-.32.105-.598.207-.84.308a7.184 7.184 0 0 0-.695.344l1.191 3.668c.258-.066.48-.125.672-.176.191-.05.418-.12.684-.207ZM65.96 10.656c-.913.149-1.687.13-2.32-.062a2.799 2.799 0 0 1-1.515-1.09c-.375-.535-.637-1.246-.781-2.14l-.985-6.075 1.336-.219 1.004 6.2c.156.94.48 1.593.973 1.957.5.363 1.203.472 2.11.324.913-.149 1.55-.473 1.902-.973.355-.504.457-1.223.3-2.168L66.98.21 68.29 0l.983 6.078c.149.89.125 1.649-.058 2.274a2.739 2.739 0 0 1-1.086 1.511c-.535.383-1.258.649-2.168.793ZM80.094 10.207a9.967 9.967 0 0 1-1.348-.203 8.807 8.807 0 0 1-1.281-.395l.086-1.117c.297.113.594.211.898.297.305.082.606.152.899.203.293.059.574.094.836.117.586.043 1.07.012 1.449-.093.379-.102.668-.27.867-.512.195-.242.309-.547.336-.91.023-.305-.016-.57-.121-.79-.106-.226-.297-.425-.574-.597-.278-.172-.668-.336-1.172-.492l-.52-.156c-.98-.305-1.683-.692-2.101-1.164-.418-.473-.598-1.086-.54-1.829.044-.558.223-1.039.54-1.441.312-.398.77-.695 1.363-.89.602-.192 1.344-.255 2.234-.184.403.031.805.086 1.207.164.403.082.766.18 1.09.297l-.09 1.12a9.588 9.588 0 0 0-1.117-.327 8.765 8.765 0 0 0-1.156-.164c-.617-.047-1.117-.02-1.512.086-.39.105-.683.277-.875.507a1.48 1.48 0 0 0-.336.868c-.035.468.07.836.324 1.109.254.277.75.531 1.485.77l.515.16c.68.199 1.223.437 1.63.71.406.274.695.598.863.973.172.375.242.809.203 1.301-.043.586-.23 1.082-.555 1.488-.32.403-.777.703-1.371.895-.594.199-1.313.265-2.156.199ZM90.207 11.871c-.887-.203-1.621-.555-2.2-1.055-.577-.5-.968-1.16-1.167-1.98-.195-.816-.16-1.805.105-2.965.266-1.168.664-2.078 1.2-2.734.53-.653 1.168-1.082 1.91-1.285.742-.196 1.55-.196 2.43.007.882.2 1.613.547 2.199 1.047.582.504.968 1.164 1.164 1.985.195.82.16 1.816-.106 2.98-.265 1.16-.664 2.066-1.195 2.719-.535.652-1.172 1.078-1.914 1.277-.746.203-1.555.203-2.426.004Zm.246-1.074c.613.137 1.176.133 1.688-.016.515-.156.964-.488 1.347-.996.38-.512.68-1.246.895-2.2.222-.972.273-1.776.156-2.413-.121-.637-.383-1.137-.781-1.492-.399-.36-.903-.606-1.516-.746-.613-.141-1.176-.137-1.687.011-.512.149-.957.48-1.34.993-.383.515-.68 1.246-.899 2.199-.218.976-.273 1.781-.156 2.418.117.636.371 1.133.77 1.496.394.355.902.601 1.523.746ZM103.223 16.117l-6.086-2.394 3.668-9.32 1.27.5-3.259 8.277 4.817 1.898ZM108.184 19.14c-.805-.456-1.395-.956-1.77-1.5a2.793 2.793 0 0 1-.5-1.8c.043-.652.285-1.367.727-2.156l3.03-5.36 1.18.668-3.09 5.465c-.472.832-.624 1.543-.468 2.137.164.597.644 1.12 1.441 1.57.809.457 1.508.602 2.098.43.59-.168 1.121-.668 1.59-1.5l3.09-5.465 1.156.652-3.031 5.36c-.446.785-.934 1.363-1.469 1.734a2.766 2.766 0 0 1-1.797.504c-.656-.04-1.383-.285-2.187-.738ZM116.953 25.242l-1.05-.863 5.648-6.875-2.711-2.227.71-.867 6.477 5.324-.715.864-2.71-2.23ZM122.281 30.059l-.972-.961 7.035-7.133.972.957ZM126.777 35.813c-.558-.72-.902-1.454-1.035-2.211-.129-.754-.012-1.512.356-2.27.367-.758 1.02-1.5 1.957-2.227.945-.734 1.832-1.187 2.66-1.355.832-.168 1.594-.098 2.293.219.699.316 1.324.832 1.879 1.547.554.71.898 1.445 1.035 2.203.129.758.012 1.515-.36 2.273-.37.758-1.027 1.504-1.972 2.238-.942.727-1.82 1.176-2.649 1.34-.824.168-1.59.094-2.289-.222-.703-.317-1.328-.828-1.875-1.535Zm.871-.676c.383.496.825.847 1.317 1.058.496.207 1.05.235 1.672.082.617-.152 1.312-.53 2.086-1.129.789-.613 1.34-1.203 1.652-1.77.309-.57.422-1.12.34-1.651-.082-.528-.313-1.04-.7-1.536-.386-.496-.824-.851-1.312-1.062-.488-.207-1.043-.234-1.664-.082-.621.156-1.316.535-2.09 1.133-.789.613-1.34 1.203-1.652 1.77-.313.566-.434 1.113-.352 1.644.078.527.313 1.039.703 1.543ZM131.52 42.71l-.606-1.116 8.809-4.778.656 1.211-4.598 9.243-.133-.247 7.426-4.027.61 1.125-8.809 4.774-.656-1.208 4.594-9.242.128.239ZM136.496 53.965a8.938 8.938 0 0 1-.348-1.32 8.683 8.683 0 0 1-.148-1.333l1.059-.367c.015.32.043.633.082.946.047.316.101.617.172.906.066.293.14.562.226.812.191.555.41.989.66 1.293.242.313.516.508.817.594.3.086.62.066.964-.05.293-.102.52-.243.68-.43.164-.18.27-.438.32-.762.043-.324.04-.746-.015-1.27l-.059-.539c-.113-1.023-.035-1.82.23-2.39.27-.57.759-.98 1.466-1.223.53-.184 1.043-.207 1.535-.074.492.129.945.426 1.36.898.413.473.765 1.133 1.054 1.977.133.383.242.773.328 1.172.086.402.14.773.16 1.117l-1.062.367a9.413 9.413 0 0 0-.145-1.16 9.585 9.585 0 0 0-.305-1.125c-.203-.582-.43-1.035-.68-1.352-.253-.316-.527-.52-.812-.605a1.508 1.508 0 0 0-.933.039c-.442.152-.739.398-.887.734-.153.344-.192.899-.117 1.668l.058.54c.082.702.082 1.296-.008 1.777-.09.484-.273.875-.55 1.18-.274.304-.645.538-1.114.699-.554.191-1.082.218-1.586.082-.5-.133-.953-.434-1.367-.903-.414-.465-.761-1.097-1.035-1.898ZM4.668 99.063l-.484-1.364 6.875-5.008.375 1.055-6.473 4.656-.094-.254 7.988-.414.43 1.211-6.46 4.692-.083-.23 7.965-.462.355.996-8.492.461-.484-1.355 6.324-4.633.094.27ZM12.531 116.164l-2.754-4.805 7.082-4.054 2.72 4.754-.755.433-2.18-3.805-5.57 3.188 2.211 3.86Zm2.934-2.406-2.098-3.664.75-.43 2.098 3.668ZM16.941 122.238c-.152-.191-.3-.39-.441-.593-.145-.204-.29-.407-.43-.614-.14-.207-.277-.414-.406-.633l6.238-4.93a13.878 13.878 0 0 1 1.152 1.121c.188.212.372.427.548.65.734.933 1.128 1.722 1.171 2.374.047.645-.218 1.196-.793 1.649a1.99 1.99 0 0 1-.78.39c-.286.07-.575.059-.876-.03-.297-.095-.594-.278-.89-.556l.074-.043c.219.372.355.723.398 1.055.047.332.004.649-.12.942a2.115 2.115 0 0 1-.65.804c-.39.309-.796.469-1.218.48-.43.016-.89-.144-1.383-.48-.488-.332-1.02-.86-1.594-1.586Zm.747-.347c.41.515.773.886 1.101 1.113.328.226.629.336.91.324.278-.02.555-.133.82-.344.399-.316.594-.683.579-1.105-.016-.422-.262-.93-.73-1.524l-1.212-1.535.64-.507 1.106 1.398c.48.61.914.957 1.293 1.043.383.09.75-.008 1.102-.285.398-.317.578-.676.539-1.082-.035-.41-.305-.934-.805-1.563a9.108 9.108 0 0 0-.508-.601 5.758 5.758 0 0 0-.5-.485l-5.113 4.043c.121.192.242.38.363.555.125.176.262.363.415.555ZM31.273 135.96c-.793-.608-1.367-1.233-1.722-1.874-.352-.645-.48-1.309-.375-2 .097-.691.441-1.414 1.023-2.172.59-.773 1.215-1.297 1.875-1.574a3.212 3.212 0 0 1 2.024-.164c.695.164 1.398.515 2.109 1.062.27.211.527.43.77.664.234.23.445.47.632.711l-.566.739a7.127 7.127 0 0 0-1.328-1.344c-.55-.422-1.082-.696-1.598-.82a2.306 2.306 0 0 0-1.523.144c-.5.219-.992.652-1.485 1.29-.46.6-.742 1.167-.84 1.694a2.272 2.272 0 0 0 .243 1.5c.254.473.672.93 1.25 1.38.195.148.398.292.61.429.218.14.421.258.608.355l-.609.06 2.09-2.724.828.637-2.36 3.07a12.578 12.578 0 0 1-1.656-1.062ZM40.648 141.777c-.664-.359-1.152-.757-1.464-1.191a2.251 2.251 0 0 1-.442-1.457c.028-.535.215-1.125.567-1.774l2.382-4.402.97.524-2.434 4.5c-.368.683-.485 1.261-.348 1.742.14.484.543.902 1.203 1.258.664.359 1.234.464 1.711.316.477-.145.898-.563 1.266-1.246l2.433-4.496.953.512-2.383 4.406c-.351.648-.742 1.129-1.175 1.445a2.23 2.23 0 0 1-1.45.43c-.53-.02-1.128-.211-1.789-.567ZM50.156 145.809l-1.039-.356 2.582-7.582c.348.05.715.117 1.106.203.39.082.797.196 1.215.34 1.097.371 1.851.84 2.265 1.406.41.559.48 1.239.207 2.035-.172.52-.449.907-.832 1.165-.379.261-.851.394-1.414.402-.566.004-1.215-.117-1.941-.367a17.532 17.532 0 0 1-.555-.2 9 9 0 0 1-.52-.21Zm5.11 1.738-1.196-.406-1.597-4.582 1.16.394Zm-2.696-5.266c.84.285 1.492.364 1.953.235.465-.133.79-.461.97-.989.187-.554.148-1.015-.118-1.375-.266-.363-.781-.672-1.55-.937a8.413 8.413 0 0 0-.692-.203 5.678 5.678 0 0 0-.625-.117l-1.012 2.968c.2.082.375.153.524.211.148.063.332.133.55.207ZM63.238 149.254c-.742-.129-1.328-.352-1.765-.668a2.255 2.255 0 0 1-.88-1.238c-.144-.516-.152-1.137-.023-1.86l.867-4.937 1.086.191-.886 5.04c-.133.765-.059 1.35.222 1.765.286.41.801.683 1.54.812.742.133 1.316.051 1.722-.238.402-.293.676-.82.809-1.586l.886-5.035 1.063.188-.867 4.933c-.125.723-.344 1.305-.657 1.738a2.21 2.21 0 0 1-1.238.868c-.512.148-1.137.156-1.879.027ZM80.793 149.977a8.045 8.045 0 0 1-1.11.007 6.948 6.948 0 0 1-1.078-.156l-.07-.914c.25.059.504.098.758.129.262.031.512.05.754.059.242.003.473-.004.687-.02.473-.035.856-.121 1.149-.25.297-.129.508-.305.637-.52.128-.218.18-.472.16-.769a1.275 1.275 0 0 0-.2-.629c-.109-.168-.289-.3-.535-.406-.246-.106-.582-.188-1.004-.254l-.441-.059c-.828-.12-1.438-.343-1.832-.675-.395-.329-.617-.797-.66-1.403a2.117 2.117 0 0 1 .25-1.226c.203-.364.535-.657.996-.887.453-.23 1.043-.371 1.77-.426a7.577 7.577 0 0 1 1.902.086l.07.914a7.009 7.009 0 0 0-.937-.125 7.834 7.834 0 0 0-.957.012c-.497.039-.899.125-1.204.254-.296.136-.511.308-.64.52a1.19 1.19 0 0 0-.16.738c.027.378.16.664.398.851.234.192.664.34 1.285.438l.442.062c.57.078 1.035.203 1.398.375.36.168.633.395.817.676.183.273.289.613.32 1.02.035.476-.051.898-.262 1.265-.21.367-.543.664-.992.89-.453.231-1.024.372-1.711.423ZM92.242 148.137c-.722.164-1.383.168-1.98.008-.602-.165-1.121-.508-1.555-1.04-.434-.53-.762-1.273-.977-2.214-.218-.95-.246-1.762-.082-2.43.16-.668.473-1.207.946-1.617.469-.406 1.062-.692 1.781-.856.715-.164 1.375-.164 1.98-.008.606.165 1.125.512 1.563 1.043.434.536.758 1.274.977 2.223.214.945.242 1.754.082 2.422-.16.668-.48 1.203-.954 1.613-.472.406-1.07.692-1.78.856Zm-.199-.875c.496-.114.91-.317 1.234-.61.328-.293.54-.691.637-1.203.098-.508.059-1.152-.117-1.926-.184-.793-.43-1.402-.746-1.828-.309-.425-.676-.699-1.098-.82-.418-.121-.879-.125-1.379-.012-.496.114-.906.317-1.226.602-.328.293-.54.695-.633 1.21-.102.509-.063 1.153.117 1.927.18.793.426 1.406.738 1.832.313.425.676.699 1.09.82.418.121.88.125 1.383.008ZM105.89 143.484l-4.949 1.961-3.004-7.586 1.036-.41 2.668 6.735 3.914-1.551ZM112.879 139.813c-.652.375-1.25.578-1.785.617a2.27 2.27 0 0 1-1.469-.395c-.441-.305-.84-.777-1.207-1.414l-2.488-4.348.957-.546 2.543 4.437c.382.676.816 1.078 1.297 1.215.484.137 1.05.016 1.703-.356.652-.375 1.043-.804 1.172-1.285.125-.484-.004-1.062-.391-1.738l-2.54-4.438.938-.539 2.489 4.352c.363.637.566 1.223.605 1.758a2.213 2.213 0 0 1-.398 1.457c-.297.441-.774.847-1.426 1.222ZM122.715 132.703l-.86.711-4.609-5.59-2.203 1.817-.582-.703 5.27-4.348.582.707-2.208 1.816ZM129.07 126.836l-.78.793-5.806-5.73.782-.794ZM134.86 119.879c-.446.59-.946 1.02-1.508 1.285-.567.266-1.184.336-1.856.211-.68-.125-1.406-.48-2.18-1.059-.777-.586-1.324-1.183-1.632-1.8-.313-.614-.418-1.227-.325-1.844.098-.613.368-1.215.809-1.805.441-.59.941-1.015 1.508-1.285.566-.27 1.187-.34 1.863-.215.676.13 1.402.48 2.184 1.067.773.578 1.316 1.18 1.625 1.796.308.61.414 1.223.316 1.844-.098.617-.367 1.219-.805 1.805Zm-.72-.54c.305-.41.489-.831.551-1.265.059-.433-.039-.875-.296-1.328-.254-.453-.696-.918-1.333-1.394-.652-.489-1.234-.793-1.75-.91-.511-.126-.968-.102-1.367.078-.398.18-.754.476-1.058.886-.305.406-.489.824-.551 1.254-.059.434.039.875.3 1.328.255.457.7.922 1.337 1.399.648.484 1.23.793 1.746.918.511.12.965.097 1.363-.082.395-.176.746-.47 1.059-.883ZM140.242 111.242l-.48.918-7.23-3.773.519-.992 8.332-1.102-.11.2-6.093-3.18.48-.922 7.235 3.773-.52.992-8.332 1.106.105-.203ZM145.648 98.992c-.109.336-.25.676-.418 1.024a6.92 6.92 0 0 1-.562.937l-.867-.285a6.7 6.7 0 0 0 .406-.652c.133-.23.246-.454.348-.676a8.88 8.88 0 0 0 .246-.64c.148-.45.219-.837.207-1.157-.004-.32-.082-.586-.23-.785a1.274 1.274 0 0 0-.653-.442 1.22 1.22 0 0 0-.656-.058c-.196.035-.39.148-.582.336-.192.187-.395.465-.617.828l-.227.383c-.43.718-.871 1.199-1.328 1.437-.453.235-.969.262-1.547.07a2.128 2.128 0 0 1-1.04-.707c-.253-.324-.398-.746-.433-1.257-.035-.508.059-1.106.285-1.797.102-.313.227-.617.368-.918.144-.305.293-.574.445-.805l.867.285a7.385 7.385 0 0 0-.472.817c-.137.289-.258.582-.356.886-.156.477-.234.88-.227 1.211.008.328.086.59.23.793.145.2.352.344.622.43.36.121.672.105.941-.04.266-.144.567-.483.899-1.019l.223-.382c.292-.496.585-.88.882-1.149.297-.265.61-.43.938-.496.324-.059.68-.027 1.066.098.453.152.809.394 1.067.726.257.336.406.758.441 1.262.04.504-.05 1.086-.266 1.742ZM.914 75.434a3.874 3.874 0 1 1 7.75 0 3.874 3.874 0 1 1-7.75 0ZM141.336 75.434a3.874 3.874 0 1 1 7.75 0 3.874 3.874 0 1 1-7.75 0Zm0 0" style="stroke:none;fill-rule:nonzero;fill:#fff;fill-opacity:1"/></svg>